<svg xmlns="http://www.w3.org/2000/svg" width="176" height="176" viewBox="0 0 176 176" fill="none">
  <rect width="176" height="176" fill="#096AF1"/>
  <path d="M137.315 59.5686H30.5703C28.9177 59.5686 27.578 58.2518 27.578 56.6275V40.9412C27.578 39.3168 28.9177 38 30.5703 38H126.444C154.785 38 160.557 77.3948 133.367 85.2553L38.8167 112.589C36.6061 113.229 37.0753 116.431 39.3796 116.431H146.271C147.924 116.431 149.263 117.748 149.263 119.373V135.059C149.263 136.683 147.924 138 146.271 138H49.556C21.1861 138 15.4463 98.5468 42.6792 90.7313L137.874 63.4116C140.089 62.7762 139.622 59.5686 137.315 59.5686Z" fill="white"/>
</svg>