<svg width="360" height="60" viewBox="0 0 360 60" fill="none" xmlns="http://www.w3.org/2000/svg">
<path d="M66.5701 13.1435H3.30155C2.32206 13.1435 1.52802 12.3627 1.52802 11.3997V2.09951C1.52802 1.13645 2.32206 0.355731 3.30156 0.355731H60.1265C76.9248 0.355731 80.3457 23.7123 64.23 28.3727L8.18924 44.5787C6.87903 44.9576 7.15714 46.8565 8.52287 46.8565H71.8783C72.8578 46.8565 73.6518 47.6373 73.6518 48.6003V57.9005C73.6518 58.8636 72.8578 59.6443 71.8783 59.6443H14.5545C-2.26052 59.6443 -5.66257 36.253 10.4786 31.6194L66.9015 15.4219C68.2138 15.0452 67.9372 13.1435 66.5701 13.1435Z" fill="#222126"/>
<path fill-rule="evenodd" clip-rule="evenodd" d="M98.602 57.9005V42.2065H150.626V57.9005C150.626 58.8635 151.42 59.6443 152.399 59.6443H161.858C162.838 59.6443 163.632 58.8635 163.632 57.9005V42.2065H186.688C187.667 42.2065 188.461 41.4257 188.461 40.4627V31.1625C188.461 30.1995 187.667 29.4187 186.688 29.4187H163.632V26.3511C163.632 23.9635 163.632 19.9646 161.71 16.228C159.927 12.7615 156.578 8.58726 150.507 5.34101C144.5 2.12893 136.16 0 124.614 0C113.067 0 104.728 2.12893 98.7206 5.34101C92.6498 8.58727 89.3011 12.7615 87.5178 16.228C85.5955 19.9645 85.5958 23.9633 85.596 26.351L85.596 57.9005C85.596 58.8635 86.3901 59.6443 87.3696 59.6443H96.8284C97.8079 59.6443 98.602 58.8635 98.602 57.9005ZM148.852 13.1435C149.832 13.1435 150.626 13.9242 150.626 14.8872V29.4187H98.602V14.8872C98.602 13.9242 99.396 13.1435 100.376 13.1435H148.852Z" fill="#222126"/>
<path d="M296.744 46.8565C295.764 46.8565 294.97 46.0758 294.97 45.1128V2.09951C294.97 1.13645 294.176 0.355731 293.197 0.355731L283.738 0.355735C282.758 0.355735 281.964 1.13645 281.964 2.09952V33.649C281.964 36.0367 281.964 40.0355 283.886 43.772C285.669 47.2385 289.018 51.4127 295.089 54.659C301.096 57.8711 309.436 60 320.982 60C332.529 60 340.869 57.8711 346.875 54.659C352.946 51.4127 356.295 47.2385 358.078 43.772C360.001 40.0355 360 36.0366 360 33.649V2.09952C360 1.13645 359.206 0.355735 358.226 0.355735L348.768 0.355731C347.788 0.355731 346.994 1.13645 346.994 2.09951V45.1128C346.994 46.0758 346.2 46.8565 345.221 46.8565H296.744Z" fill="#222126"/>
<path d="M199.694 13.1435H262.962C264.329 13.1435 264.606 15.0452 263.293 15.4219L206.871 31.6194C190.729 36.253 194.131 59.6443 210.946 59.6443H268.27C269.25 59.6443 270.044 58.8636 270.044 57.9005V48.6003C270.044 47.6373 269.25 46.8565 268.27 46.8565H204.915C203.549 46.8565 203.271 44.9576 204.581 44.5787L260.622 28.3727C276.738 23.7123 273.317 0.355731 256.518 0.355731H199.694C198.714 0.355731 197.92 1.13645 197.92 2.09951V11.3997C197.92 12.3627 198.714 13.1435 199.694 13.1435Z" fill="#222126"/>
</svg>
