<svg width="304" height="107" fill="none" xmlns="http://www.w3.org/2000/svg"><path d="M49.2 106.912c-.192.064-.384.064-.576.064-.32 0-.704-.128-1.088-.384-1.536-1.152-1.408-2.432-1.28-3.712l.064-.256c.704-6.144 2.368-11.968 3.968-17.6l.128-.512c4.352-15.04 20.608-52.352 26.112-66.432l2.112-5.504.576-1.344a65.302 65.302 0 0 0 1.216-3.2c.384-1.28.64-2.368.768-3.52.064-.32.192-1.152-.448-1.472-.192-.064-.32-.128-.512-.128-.704 0-1.536.64-2.112 1.088-.128.128-.256.192-.384.256-1.6 1.024-3.072 2.24-4.48 3.456l-.576.448c-2.24 1.92-4.288 4.096-6.272 6.208l-.192.192c-4.096 4.416-19.776 21.376-23.744 25.856a1112.96 1112.96 0 0 1-8.384 9.472c-1.024 1.088-2.24 2.048-3.456 3.008-.448.384-.832.704-1.28 1.088-.512.448-1.088.64-1.6.64-.384 0-.768-.128-1.088-.32-.96-.576-1.408-1.536-1.216-3.008.256-2.56.704-5.056 1.152-7.488l.192-1.216c.256-1.216.512-2.432.704-3.648.64-3.264 1.344-6.656 1.472-10.112.064-1.024 0-1.92-.192-2.816-.128-.512-.192-1.024-.448-1.472-.192-.384-.512-.576-.896-.576-1.152 0-3.008 2.048-3.712 2.944-5.76 7.232-9.92 15.744-13.888 23.936-.64 1.408-3.264 6.72-3.264 6.72l-3.264 6.528c-.064.192-.192.384-.256.576-.192.512-.448 1.024-.832 1.344-.128.064-.256.128-.384.128-.256 0-.512-.192-.704-.512-.256-.576 0-1.152.256-1.664.064-.128.064-.32.128-.448 3.904-11.072 9.024-23.872 17.152-35.008 1.92-2.56 3.648-4.352 5.568-5.632.96-.64 1.728-.96 2.56-.96.576 0 1.088.128 1.664.448 1.728.96 1.856 2.56 1.856 4.288-.064 3.2-.448 6.208-.896 8.832-.448 2.688-.96 5.376-1.536 8.064-.32 1.472-.576 2.88-.832 4.352l-.064.32c-.128.64-.256 1.344-.32 2.048-.064 1.088-.064 2.048.448 2.56l.128.064.32.064c.448 0 1.024-.448 1.536-.896l.256-.192c1.152-.832 2.304-1.92 3.456-3.2 1.408-1.472 2.688-3.072 3.904-4.608l2.112-2.688c7.552-8.96 25.984-29.312 34.24-36.416 1.856-1.536 3.648-3.008 6.016-3.904.512-.256.896-.32 1.344-.32.64 0 1.216.192 1.792.704.96.768 1.344 1.728 1.28 3.072-.128 2.56-.832 4.8-1.536 6.656-1.984 5.376-4.16 10.752-6.272 15.936-3.712 9.28-18.112 41.6-21.184 51.52l-.832 2.816c-2.048 6.592-4.16 13.376-5.184 20.544a2.3 2.3 0 0 1-.128.704c-.256.96-.576 2.112 1.024 3.392.192.192.192.32.256.384 0 .128-.192.32-.448.448zm56.071-59.392c.192.064.32.064.384.192.064.192-.064.512-.32.768-4.352 4.608-9.728 8.704-16.064 12.16l-.384.256c-.512.256-1.024.576-1.6.576-.448 0-.896-.192-1.344-.576-1.152-.96-.896-1.856-.512-2.816l.192-.576c.768-2.752 1.984-5.248 3.2-7.488 0 0 1.6-2.944 1.92-3.584.064-.064.128-.256.256-.448.768-1.088 1.536-2.368 1.216-3.136-.064-.192-.192-.32-.384-.448-.064 0-.192-.064-.32-.064-.832 0-2.112 1.408-2.112 1.408-.64.704-1.344 1.728-1.408 3.072v.192c0 .384 0 .96-.256.96-.128 0-.384-.064-.96-.64l-.128-.192-.448.448c-.192.256-.448.448-.64.704-.96 1.024-1.856 2.112-2.752 3.2-2.048 2.368-4.096 4.8-6.592 6.784l-.512.448c-.768.64-1.6 1.408-2.56 1.408-.448 0-.896-.192-1.344-.512-1.856-1.28-1.344-3.072-.96-4.672l.128-.448c1.024-4.032 2.816-7.616 5.44-10.56 1.92-2.048 3.968-3.072 6.528-3.072h.256c1.088.064 2.176.064 2.688.768.832 1.088 1.536 1.6 2.176 1.6.704 0 1.216-.448 1.728-.96l.192-.192a3.812 3.812 0 0 1 1.344-.896c.384-.192.768-.384 1.152-.384.32 0 .576.128.832.384.768.576.576 1.152.192 1.856a401.422 401.422 0 0 1-4.352 9.152l-1.152 2.368c-.448.96-.832 1.984-1.152 3.008l-.384.896c-.128.448-.128.768 0 .96.064.192.192.256.384.32.128.064.256.064.384.064.896 0 2.24-.704 2.624-.96 2.752-1.856 5.44-3.84 7.936-5.632.832-.64 1.6-1.28 2.368-1.92.576-.448 1.088-.896 1.664-1.344.32-.192.576-.384.832-.64.512-.384.96-.832 1.536-1.152l.192-.128c.256-.192.64-.512.896-.512zm-18.752-2.432c.448-.448.448-1.024 0-1.664-.512-.64-1.28-1.088-1.984-1.088-.128 0-.192 0-.32.064-1.024.192-1.984.512-2.752.96-3.776 2.24-5.888 5.888-7.616 9.152-.192.32-.384.64-.576 1.024-.448.768-.96 1.6-1.216 2.56-.064.448-.192 1.856.384 2.432.192.128.384.192.576.192.192 0 .384-.064.576-.192 3.712-2.24 6.464-5.632 9.088-8.832 1.216-1.536 2.496-3.136 3.84-4.608zm53.908-16.512c.192.128.256.384.256.64.064.256 0 .512-.64.512-.256 0-.576-.064-.832-.128h-.256c-4.736-.64-9.344-.704-13.632-.704h-6.656c-1.344 0-2.24.192-2.816 1.28l-1.088 2.176c-5.568 10.816-11.329 21.952-14.529 34.496-1.215 4.928-1.791 9.216-1.727 13.376v.512c0 .704 0 1.408.511 1.984.385.384.897.64 1.728.704l.384.192c.128.192.256.384.256.64.128.64-.32.768-.704.768h-.064c-1.855 0-3.007-.832-3.584-2.624-.576-1.856-.384-3.648-.256-5.312l.064-.576c1.025-11.52 5.184-21.696 9.281-31.552l.32-.832c1.343-3.2 2.88-6.336 4.416-9.344a279.192 279.192 0 0 1 2.111-4.352c.193-.448.449-.896-.319-2.048l-.064-.128h-.128c-1.92 0-3.904-.064-5.824-.064h-6.017c-3.263 0-5.951 0-8.383.128-1.025.064-2.112.064-3.136.064-2.624 0-5.377.064-7.873.704-.32.064-.64.128-.96.128a1.29 1.29 0 0 1-.704-.192c-.191-.192-.255-.384-.383-.64-.064-.448.064-.576.64-.576h1.023c4.8-.448 9.665-.512 13.377-.512 1.984 0 3.968.064 5.951.064 1.984 0 3.969.064 5.953.064 1.856 0 3.712-.064 5.568-.064 1.856-.064 3.264-.448 4.096-2.24 1.856-3.776 4.288-7.296 7.424-10.752.128-.064.192-.192.256-.32.32-.32.576-.704.96-.704.256 0 .512.128.768.384.832.704.512 1.28-.064 2.112-.64.896-1.216 1.728-1.856 2.56-1.856 2.56-3.84 5.248-5.44 8.576l-.128.32h5.632c4.608 0 9.6.32 15.36.96.127 0 .32 0 .448.064.512 0 1.024 0 1.28.256zm11 0c.192.128.256.384.256.64.064.256 0 .512-.64.512-.256 0-.576-.064-.832-.128h-.256c-4.736-.64-9.344-.704-13.632-.704h-6.656c-1.344 0-2.24.192-2.816 1.28l-1.088 2.176c-5.568 10.816-11.329 21.952-14.529 34.496-1.216 4.928-1.792 9.216-1.728 13.376v.512c0 .704 0 1.408.512 1.984.384.384.896.64 1.728.704l.384.192c.128.192.256.384.256.64.128.64-.32.768-.704.768h-.064c-1.856 0-3.008-.832-3.584-2.624-.576-1.856-.384-3.648-.256-5.312l.064-.576c1.024-11.52 5.184-21.696 9.281-31.552l.32-.832c1.343-3.2 2.88-6.336 4.416-9.344a279.192 279.192 0 0 1 2.111-4.352c.193-.448.449-.896-.319-2.048l-.064-.128h-.128c-1.92 0-3.904-.064-5.824-.064h-6.017c-3.264 0-5.952 0-8.384.128-1.024.064-2.112.064-3.136.064-2.623 0-5.376.064-7.871.704-.32.064-.64.128-.96.128a1.29 1.29 0 0 1-.704-.192c-.192-.192-.257-.384-.385-.64-.063-.448.065-.576.64-.576h1.024c4.8-.448 9.664-.512 13.376-.512 1.984 0 3.968.064 5.952.064s3.969.064 5.953.064c1.856 0 3.712-.064 5.568-.064 1.856-.064 3.264-.448 4.096-2.24 1.856-3.776 4.288-7.296 7.424-10.752.128-.064.192-.192.256-.32.32-.32.576-.704.96-.704.256 0 .512.128.768.384.832.704.512 1.28-.064 2.112-.64.896-1.216 1.728-1.856 2.56-1.856 2.56-3.84 5.248-5.44 8.576l-.128.32h5.632c4.608 0 9.6.32 15.36.96.127 0 .32 0 .448.064.512 0 1.024 0 1.28.256zm48.555 48.32l.064.128c-.128 0-.448-.128-.64-.256-.576-.32-1.152-.832-1.728-1.344-.256-.192-.512-.448-.704-.64a54.89 54.89 0 0 1-2.24-1.792c-1.536-1.28-3.008-2.496-4.608-3.712-1.216-.896-2.432-1.792-3.712-2.752-.32-.256-.768-.512-1.152-.832-.832-.512-1.728-1.088-2.368-1.728-4.672-3.456-8.512-6.016-12.288-8.064-.96-.576-1.664-.832-2.176-.832-.768 0-1.28.448-1.856 1.408-1.792 3.2-10.752 23.872-12.096 27.2-.896 2.176-1.792 4.352-2.816 6.528-.128.256-.256.512-.32.768-.256.512-.512 1.088-.768 1.536-.32.448-.576.832-1.088.832-.192 0-.448-.064-.704-.192-.96-.576-1.216-1.28-.832-2.24 1.216-3.008 2.432-6.016 3.648-8.96l.896-2.176c1.024-2.624 9.6-22.464 10.688-25.024.32-.768.448-1.344.128-1.856-.256-.448-.832-.768-1.792-1.024l-1.088-.32c-2.368-.704-4.864-1.408-7.36-1.6-.96-.128-1.984-.32-2.432-1.28-.448-.896-.064-1.536 1.28-1.92 5.12-1.6 9.344-2.944 13.888-4.096 1.92-.512 3.008-1.408 3.712-3.072 3.52-8.512 6.976-15.872 10.624-22.656.064-.128.192-.192.32-.32.256-.32.64-.64.448-1.152-.128-.448-.576-.896-1.344-1.408-.192-.448.704-1.28 1.28-1.856.32-.256.576-.576.768-.768l.32-.32c.448-.576.96-1.152 1.6-1.152.32 0 .704.128 1.152.448.96.832.704 1.728.128 2.88l-.128.32c-2.24 4.992-4.48 9.92-6.656 14.912l-4.224 9.28c-.192.448-.32.96-.512 1.472l-.384 1.024.384.064c.192.064.448.064.64.064 1.28 0 1.792-.768 2.24-1.472.128-.192.256-.384.448-.576 5.44-6.528 11.52-13.312 19.904-17.792 2.304-1.152 4.864-2.304 7.936-2.304h.384c2.048.064 3.712.768 4.672 1.984 1.024 1.216 1.344 2.816.832 4.608-1.088 3.904-4.096 6.208-6.848 8.064-5.76 4.032-12.992 6.848-21.44 8.384-5.632 1.024-9.408 3.84-11.84 8.96-.256.64-.64 1.28-.96 1.92l-.512.896.448.32c.256.192 4.8 2.944 5.76 3.584 1.92 1.216 3.968 2.56 5.952 4.032 4.544 3.328 9.024 7.168 13.312 10.88 1.792 1.536 3.584 3.072 5.376 4.544.128.128.32.32.384.448zm-33.536-31.488l-.448.064c-3.712.64-6.848 1.408-10.304 2.624l-.64.256.768.256c3.84 1.088 6.144 1.792 7.616 1.792 2.048 0 2.368-1.408 2.88-4.608l.128-.384zm41.664-24.896c-.832-.896-1.92-1.408-3.264-1.408-.576 0-1.28.128-2.048.32-10.176 2.688-16.384 9.984-22.336 17.024l-2.304 2.624.832-.128c7.36-1.344 13.568-3.264 19.072-5.824 3.712-1.664 7.488-3.776 9.856-7.424.896-1.344 2.048-3.136.192-5.184zm3.464 30.08c.32-.192.704-.32 1.024-.32.128.448-.448.896-.768 1.152l-.448.32c-4.48 3.52-9.152 7.168-15.744 7.168h-.32c-2.112-.064-3.84-.768-4.992-1.984-1.088-1.216-1.472-2.816-1.088-4.544 1.152-5.76 4.992-9.6 11.328-11.264.384-.128.704-.128 1.024-.128 1.024 0 1.92.448 2.56 1.344.96 1.344.384 2.24-.384 3.2-1.792 2.176-4.48 3.456-8.448 4.032-2.88.448-3.328 2.56-3.712 4.544l-.128.448c-.128.576 0 1.152.384 1.664.448.64 1.152 1.152 2.176 1.408.832.256 1.6.32 2.432.32 1.408 0 2.624-.256 4.096-.704 2.24-.64 4.48-1.664 6.72-3.2 1.024-.704 1.984-1.408 3.008-2.304.192-.128.32-.32.512-.448.256-.256.512-.512.768-.704zm-15.552-3.264l-.384.448.64-.128c3.008-.704 4.992-1.6 6.528-4.096l.32-.512-.576.192c-2.56.768-4.608 1.792-6.528 4.096zm54.453-29.952c1.472.96 1.216 2.368 1.024 3.648-.768 5.056-3.52 8.768-6.592 12.416-3.328 4.096-7.424 8.32-12.864 13.184-1.216 1.152-2.112 2.368-2.688 3.84-2.496 6.592-5.632 14.784-5.12 24.192v.768c0 1.152 0 2.432 1.152 3.712.32.32.512.64.448.896 0 .192-.128.384-.448.512-.128.064-.32.064-.512.064-.512 0-.96-.32-1.28-.896-.576-1.216-.704-2.496-.768-3.648-.256-8.576 1.792-16.128 3.712-21.824 0-.064.064-.128.128-.256.192-.384.384-.768.192-1.152-.128-.32-.384-.384-.512-.448h-.064c-.704 0-1.408.704-2.048 1.28l-.256.256c-1.728 1.408-3.456 2.752-5.184 3.968l-.32.192c-1.984 1.344-3.968 2.752-6.848 2.752-1.217 0-2.113-.32-2.753-.896-.576-.64-.896-1.472-.96-2.496 0-.768.128-1.536.32-2.176 2.112-6.336 6.081-10.944 11.841-13.632 1.024-.448 1.984-.704 2.88-.704 2.496 0 4.607 1.792 6.272 5.248l.192.448 3.072-5.824c2.432-4.608 4.864-9.216 7.296-13.76 1.792-3.328 3.84-6.784 7.104-9.088.704-.512 1.472-1.024 2.303-1.024.449 0 .833.128 1.281.448zm-23.872 32.896c1.728-1.344.704-2.816-.192-4.032a8.338 8.338 0 0 1-.64-.96c-.576-.96-1.344-1.472-2.304-1.472-.448 0-.96.128-1.6.32-3.456 1.152-5.824 3.52-7.936 5.824-1.984 2.112-3.777 4.288-4.48 7.232-.193 1.024-.129 1.792.319 2.24.448.576 1.28.768 2.433.768 1.984-.256 3.648-1.28 4.8-2.048 2.176-1.408 4.16-3.136 6.016-4.8 1.152-1.024 2.368-2.048 3.584-3.072zm21.184-23.04c.832-1.408 3.584-6.272 2.624-7.936-.128-.32-.384-.512-.768-.64-.064-.064-.192-.064-.32-.064-.512 0-1.152.32-1.664.832-.96.96-1.792 2.048-2.624 3.136l-.577.704c-1.471 1.792-2.879 3.84-4.223 6.144-2.176 3.584-4.032 7.488-5.824 11.2l-.896 1.856.384.256c.32-.576.96-1.088 1.6-1.6.32-.256.576-.448.832-.64l2.496-2.496c1.984-1.92 3.52-3.52 4.8-5.056 1.664-1.984 3.008-3.84 4.16-5.696zm20.727-22.656c1.024.896.64 1.664-.064 2.688-1.024 1.216-1.92 2.56-2.88 3.904 0 .064-.064.128-.128.256a181.12 181.12 0 0 0-6.592 10.048c-9.408 15.232-17.216 32.064-21.696 49.92-1.6 6.272-2.304 11.584-2.176 16.832v.64c0 .832-.064 1.792.576 2.496.448.512 1.216.768 2.176.896.192.064.384.128.512.256.192.192.32.512.384.768.064.832-.448.96-.896.96h-.128c-2.368 0-3.84-1.088-4.48-3.328-.704-2.304-.512-4.544-.32-6.656l.064-.704c1.664-19.136 9.664-36.48 17.6-52.48 4.48-9.088 8.768-18.24 15.552-25.6.128-.128.256-.32.32-.448.384-.448.704-.896 1.216-.896.256 0 .576.128.96.448zm6.748 46.016c.32-.192.704-.32 1.024-.32.128.448-.448.896-.768 1.152l-.448.32c-4.48 3.52-9.152 7.168-15.744 7.168h-.32c-2.112-.064-3.84-.768-4.992-1.984-1.089-1.216-1.473-2.816-1.089-4.544 1.153-5.76 4.993-9.6 11.329-11.264.384-.128.704-.128 1.024-.128 1.024 0 1.92.448 2.56 1.344.96 1.344.384 2.24-.384 3.2-1.792 2.176-4.48 3.456-8.448 4.032-2.88.448-3.328 2.56-3.712 4.544l-.128.448c-.128.576 0 1.152.383 1.664.449.64 1.153 1.152 2.177 1.408.832.256 1.6.32 2.432.32 1.408 0 2.624-.256 4.096-.704 2.24-.64 4.48-1.664 6.72-3.2 1.024-.704 1.984-1.408 3.008-2.304.192-.128.32-.32.512-.448.256-.256.512-.512.768-.704zm-15.552-3.264l-.384.448.64-.128c3.008-.704 4.992-1.6 6.528-4.096l.32-.512-.576.192c-2.56.768-4.608 1.792-6.528 4.096zm43.444 2.752c.32.064.448.192.448.256.064.064 0 .256-.256.384-.704.448-1.6.64-2.56.64-2.432 0-5.184-1.344-7.04-3.456-1.536-1.792-2.24-2.56-3.136-2.56-.704 0-1.344.448-2.496 1.28-4.032 2.88-7.552 6.464-10.944 9.984l-1.536 1.6-.384.384c-.256.384-.512.768-.96.768-.256 0-.576-.128-.896-.384-.96-.704-.704-1.472-.448-2.176l.064-.256c1.728-5.44 3.776-10.112 6.336-14.272l.064-.192c.32-.448.704-1.088 1.216-1.088.192 0 .384.064.576.192.32.192.512.384.64.64.192.448-.128.896-.32 1.344-.064.128-.192.32-.256.448l-.448 1.216c-.576 1.344-1.088 2.688-1.664 3.968-.384.832-.768 1.664-1.216 2.496 0 0-.896 1.984-.576 2.368l.064.128h.192c.832-.192 1.344-.768 1.856-1.28l.64-.64 2.688-2.24c1.728-1.472 3.392-2.88 5.184-4.224 1.216-.896 1.984-1.28 2.624-1.28 1.024 0 2.048.96 3.648 2.944 1.792 2.176 4.288 3.52 6.656 3.52.384 0 .768-.064 1.152-.128.128-.064.32-.128.448-.192.256-.064.448-.192.64-.192z" fill="#000"/></svg>